<svg width="27" height="28" viewBox="0 0 27 28" fill="none" xmlns="http://www.w3.org/2000/svg">
<path opacity="0.5" d="M24.75 0.5H2.25C1.65326 0.5 1.08097 0.737053 0.65901 1.15901C0.237053 1.58097 0 2.15326 0 2.75V25.25C0 25.8467 0.237053 26.419 0.65901 26.841C1.08097 27.2629 1.65326 27.5 2.25 27.5H24.75C25.3467 27.5 25.919 27.2629 26.341 26.841C26.7629 26.419 27 25.8467 27 25.25V2.75C27 2.15326 26.7629 1.58097 26.341 1.15901C25.919 0.737053 25.3467 0.5 24.75 0.5ZM21.375 15.125H14.625V21.875C14.625 22.1734 14.5065 22.4595 14.2955 22.6705C14.0845 22.8815 13.7984 23 13.5 23C13.2016 23 12.9155 22.8815 12.7045 22.6705C12.4935 22.4595 12.375 22.1734 12.375 21.875V15.125H5.625C5.32663 15.125 5.04048 15.0065 4.8295 14.7955C4.61853 14.5845 4.5 14.2984 4.5 14C4.5 13.7016 4.61853 13.4155 4.8295 13.2045C5.04048 12.9935 5.32663 12.875 5.625 12.875H12.375V6.125C12.375 5.82663 12.4935 5.54048 12.7045 5.3295C12.9155 5.11853 13.2016 5 13.5 5C13.7984 5 14.0845 5.11853 14.2955 5.3295C14.5065 5.54048 14.625 5.82663 14.625 6.125V12.875H21.375C21.6734 12.875 21.9595 12.9935 22.1705 13.2045C22.3815 13.4155 22.5 13.7016 22.5 14C22.5 14.2984 22.3815 14.5845 22.1705 14.7955C21.9595 15.0065 21.6734 15.125 21.375 15.125Z" fill="#90A6B3"/>
</svg>
